<?xml version="1.0" standalone="no"?>
<!DOCTYPE svg PUBLIC "-//W3C//DTD SVG 20010904//EN"
 "http://www.w3.org/TR/2001/REC-SVG-20010904/DTD/svg10.dtd">
<svg version="1.0" xmlns="http://www.w3.org/2000/svg"
 width="300.000000pt" height="300.000000pt" viewBox="0 0 300.000000 300.000000"
 preserveAspectRatio="xMidYMid meet">
<metadata>
</metadata>
<g transform="translate(0.000000,300.000000) scale(0.100000,-0.100000)"
fill="#000000" stroke="none">
<path d="M1201 2782 c-52 -1 -101 -7 -107 -13 -7 -6 -20 -34 -28 -62 -14 -50
-93 -345 -100 -377 -7 -29 -206 -776 -220 -825 -8 -27 -33 -122 -56 -210 -23
-88 -75 -284 -115 -435 -40 -151 -92 -347 -115 -435 -23 -88 -45 -171 -49
-185 -5 -14 -5 -35 0 -48 10 -25 -24 -23 402 -24 249 0 280 2 297 17 16 15 26
45 44 140 26 134 42 188 57 194 21 7 551 6 572 -2 8 -3 17 -20 21 -39 3 -18 8
-43 11 -55 6 -29 11 -50 31 -143 26 -120 -3 -112 389 -112 215 0 341 4 347 10
10 10 12 43 5 72 -7 29 -20 77 -87 330 -38 140 -86 325 -109 410 -22 85 -47
182 -56 215 -9 33 -18 71 -21 85 -2 14 -9 36 -14 50 -8 22 -37 131 -45 170 -2
8 -15 58 -30 110 -15 52 -28 102 -30 110 -2 8 -13 51 -24 95 -12 44 -23 87
-26 95 -2 8 -18 69 -35 135 -17 66 -42 161 -55 210 -40 155 -65 248 -80 300
-7 28 -21 80 -31 117 -9 37 -24 74 -34 83 -14 13 -64 15 -316 18 -164 1 -342
1 -393 -1z m313 -953 c2 -13 11 -56 20 -94 8 -39 17 -82 20 -95 2 -14 30 -140
60 -280 31 -140 56 -265 56 -277 l0 -23 -174 0 c-96 0 -177 4 -181 9 -3 5 11
85 31 178 19 92 38 179 40 193 3 14 14 68 25 120 11 52 23 106 25 120 3 14 10
45 16 70 5 25 12 59 15 75 7 40 24 61 34 42 4 -7 10 -24 13 -38z"/>
</g>
</svg>
