<?xml version="1.0" standalone="no"?>
<!DOCTYPE svg PUBLIC "-//W3C//DTD SVG 20010904//EN"
 "http://www.w3.org/TR/2001/REC-SVG-20010904/DTD/svg10.dtd">
<svg version="1.0" xmlns="http://www.w3.org/2000/svg"
 width="300.000000pt" height="300.000000pt" viewBox="0 0 300.000000 300.000000"
 preserveAspectRatio="xMidYMid meet">
<metadata>
Created by potrace 1.14, written by Peter Selinger 2001-2017
</metadata>
<g transform="translate(0.000000,300.000000) scale(0.100000,-0.100000)"
fill="#000000" stroke="none">
<path d="M0 1500 l0 -1500 1500 0 1500 0 0 1500 0 1500 -1500 0 -1500 0 0
-1500z m1698 552 c16 -11 346 -1257 338 -1277 -4 -12 -34 -15 -168 -15 -90 0
-169 4 -175 8 -7 4 -21 44 -31 87 l-18 80 -146 3 -146 3 -17 -78 c-9 -43 -22
-84 -27 -90 -16 -20 -337 -18 -344 2 -7 17 313 1231 332 1263 14 22 18 22 202
22 103 0 193 -4 200 -8z"/>
<path d="M1487 1588 c-11 -44 -77 -360 -77 -369 0 -5 38 -9 85 -9 66 0 85 3
85 14 0 20 -77 377 -83 382 -2 3 -7 -5 -10 -18z"/>
</g>
</svg>
